<?xml version="1.0" encoding="utf-8"?>
<!-- Generator: Adobe Illustrator 22.0.0, SVG Export Plug-In . SVG Version: 6.00 Build 0)  -->
<svg xmlns="http://www.w3.org/2000/svg" xmlns:xlink="http://www.w3.org/1999/xlink" version="1.1" id="Layer_1" x="0px" y="0px" viewBox="0 0 500 500" style="enable-background:new 0 0 500 500;" xml:space="preserve" width="512" height="512">
<style type="text/css">
	.st0{fill:#83E1E5;}
	.st1{fill:#AAB1BA;}
	.st2{fill:#ECF4F7;}
	.st3{fill:#FDDF7F;}
	.st4{fill:#1C1D21;}
	.st5{fill:#FFFFFF;}
</style>
<g>
	<g>
		<path class="st0" d="M430.824,79.745H317.725h-135.45H69.176c-12.344,0-22.351,10.006-22.351,22.351v370.552    c0,12.344,10.007,22.351,22.351,22.351h113.099h135.45h113.099c12.344,0,22.351-10.007,22.351-22.351V102.096    C453.175,89.751,443.168,79.745,430.824,79.745z"/>
	</g>
</g>
<g>
	<g>
		<path class="st2" d="M81.892,338.64V119.619c0-2.655,2.152-4.807,4.807-4.807h55.702c2.655,0,4.807,2.152,4.807,4.807V338.64    c0,2.655-2.152,4.807-4.807,4.807H86.699C84.045,343.447,81.892,341.295,81.892,338.64z"/>
	</g>
</g>
<g>
	<g>
		<path class="st2" d="M217.342,455.126V119.619c0-2.655,2.152-4.807,4.807-4.807h55.702c2.655,0,4.807,2.152,4.807,4.807v335.507    c0,2.655-2.152,4.807-4.807,4.807h-55.702C219.494,459.933,217.342,457.781,217.342,455.126z"/>
	</g>
</g>
<g>
	<g>
		<path class="st2" d="M352.792,455.126V119.619c0-2.655,2.152-4.807,4.807-4.807h55.702c2.655,0,4.807,2.152,4.807,4.807v335.507    c0,2.655-2.152,4.807-4.807,4.807h-55.702C354.944,459.933,352.792,457.781,352.792,455.126z"/>
	</g>
</g>
<path class="st4" d="M210.875,15.833c0-2.762,2.239-5,5-5h5.833V5c0-2.762,2.239-5,5-5s5,2.238,5,5v5.833h5.833c2.761,0,5,2.238,5,5  s-2.239,5-5,5h-5.833v5.833c0,2.762-2.239,5-5,5s-5-2.238-5-5v-5.833h-5.833C213.113,20.833,210.875,18.595,210.875,15.833z   M262.46,20.833h5.833v5.833c0,2.762,2.238,5,5,5s5-2.238,5-5v-5.833h5.832c2.762,0,5-2.238,5-5s-2.238-5-5-5h-5.832V5  c0-2.762-2.238-5-5-5s-5,2.238-5,5v5.833h-5.833c-2.762,0-5,2.238-5,5S259.698,20.833,262.46,20.833z M46.825,169.416  c2.761,0,5-2.238,5-5v-4.539c0-2.762-2.239-5-5-5s-5,2.238-5,5v4.539C41.825,167.178,44.064,169.416,46.825,169.416z   M86.699,348.447c-5.407,0-9.807-4.399-9.807-9.807V119.619c0-5.407,4.399-9.807,9.807-9.807h55.702  c5.408,0,9.807,4.399,9.807,9.807v219.021c0,5.407-4.399,9.807-9.807,9.807H86.699z M86.893,338.447h55.315V119.813H86.893V338.447z   M287.657,119.619v335.507c0,5.407-4.399,9.807-9.807,9.807h-55.701c-5.408,0-9.807-4.399-9.807-9.807V119.619  c0-5.407,4.399-9.807,9.807-9.807h55.701C283.258,109.813,287.657,114.212,287.657,119.619z M277.657,119.813h-55.315v335.12h55.315  V119.813z M423.107,119.619v335.507c0,5.407-4.399,9.807-9.807,9.807h-55.702c-5.407,0-9.807-4.399-9.807-9.807V119.619  c0-5.407,4.399-9.807,9.807-9.807h55.702C418.708,109.813,423.107,114.212,423.107,119.619z M413.107,119.813h-55.315v335.12h55.315  V119.813z M478.989,495c0,2.762-2.238,5-5,5h-43.165h-113.1h-135.45H69.176H26.011c-2.761,0-5-2.238-5-5s2.239-5,5-5H48.05  c-3.887-4.725-6.225-10.77-6.225-17.352v-291.11c0-2.762,2.239-5,5-5s5,2.238,5,5v291.11c0,9.567,7.784,17.352,17.351,17.352  h108.099V84.745H69.176c-9.567,0-17.351,7.783-17.351,17.351v37.92c0,2.762-2.239,5-5,5s-5-2.238-5-5v-37.92  c0-15.081,12.27-27.351,27.351-27.351h113.099h135.45h113.1c15.081,0,27.351,12.27,27.351,27.351v370.553  c0,6.582-2.337,12.627-6.225,17.352h22.039C476.751,490,478.989,492.238,478.989,495z M187.275,490h125.45V84.745h-125.45V490z   M430.824,490c9.567,0,17.351-7.784,17.351-17.352V102.096c0-9.567-7.783-17.351-17.351-17.351h-108.1V490H430.824z M8.413,490H5.5  c-2.761,0-5,2.238-5,5s2.239,5,5,5h2.913c2.761,0,5-2.238,5-5S11.174,490,8.413,490z M494.5,490h-2.913c-2.762,0-5,2.238-5,5  s2.238,5,5,5h2.913c2.762,0,5-2.238,5-5S497.262,490,494.5,490z"/>
</svg>
