<?xml version="1.0" encoding="utf-8"?>
<!-- Generator: Adobe Illustrator 22.0.0, SVG Export Plug-In . SVG Version: 6.00 Build 0)  -->
<svg xmlns="http://www.w3.org/2000/svg" xmlns:xlink="http://www.w3.org/1999/xlink" version="1.1" id="Layer_1" x="0px" y="0px" viewBox="0 0 500 500" style="enable-background:new 0 0 500 500;" xml:space="preserve" width="512" height="512">
<style type="text/css">
	.st0{fill:#83E1E5;}
	.st1{fill:#AAB1BA;}
	.st2{fill:#ECF4F7;}
	.st3{fill:#FDDF7F;}
	.st4{fill:#1C1D21;}
	.st5{fill:#FFFFFF;}
</style>
<g>
	<g>
		<path class="st3" d="M106.492,472.51c-2.418,0-4.384-1.966-4.384-4.383v-65.314h21.011c4.328,0,8.268-2.493,10.121-6.404    c1.854-3.911,1.288-8.54-1.452-11.889l-32.212-39.373c-2.127-2.6-5.31-4.108-8.67-4.108c-3.36,0-6.543,1.508-8.67,4.108    l-32.212,39.373c-2.74,3.35-3.306,7.978-1.452,11.889c1.853,3.911,5.794,6.404,10.121,6.404h21.011v65.314    c0,14.77,12.017,26.785,26.786,26.785h52.536V472.51H106.492z"/>
	</g>
</g>
<g>
	<g>
		<path class="st3" d="M393.508,83.722c2.418,0,4.384,1.966,4.384,4.383v65.314h-21.011c-4.328,0-8.268,2.493-10.121,6.404    c-1.854,3.911-1.288,8.54,1.452,11.889l32.212,39.373c2.127,2.6,5.31,4.108,8.67,4.108s6.543-1.508,8.67-4.108l32.212-39.373    c2.74-3.35,3.306-7.978,1.452-11.889c-1.853-3.911-5.794-6.404-10.121-6.404h-21.011V88.105c0-14.77-12.017-26.785-26.786-26.785    h-52.536v22.402H393.508z"/>
	</g>
</g>
<g>
	<g>
		<path class="st2" d="M296.672,260.47c0.031-0.624,0.048-1.251,0.048-1.882V111.165H121.839v147.424    c0,20.53-16.643,37.173-37.172,37.173h118.615v-35.29H296.672z"/>
	</g>
</g>
<g>
	<g>
		<path class="st1" d="M47.493,61.32v197.269c0,20.53,16.643,37.173,37.173,37.173s37.173-16.643,37.173-37.173V111.165h103.07    V61.32H47.493z"/>
	</g>
</g>
<g>
	<g>
		<path class="st2" d="M452.484,310.404H277.604v147.424c0,20.53-16.643,37.173-37.173,37.173l166.564-0.069    c25.126-0.01,45.49-20.382,45.49-45.508V310.404z"/>
	</g>
</g>
<g>
	<g>
		<path class="st1" d="M203.258,260.559v197.269c0,20.53,16.643,37.173,37.173,37.173s37.173-16.643,37.173-37.173V310.404h103.07    v-49.845H203.258z"/>
	</g>
</g>
<path class="st4" d="M87.466,15.831c0-2.761,2.238-5,5-5h5.831V5c0-2.761,2.238-5,5-5s5,2.239,5,5v5.831h5.831c2.762,0,5,2.239,5,5  s-2.238,5-5,5h-5.831v5.831c0,2.761-2.238,5-5,5s-5-2.239-5-5v-5.831h-5.831C89.704,20.831,87.466,18.592,87.466,15.831z   M148.196,20.831h5.831v5.831c0,2.761,2.238,5,5,5s5-2.239,5-5v-5.831h5.831c2.762,0,5-2.239,5-5s-2.238-5-5-5h-5.831V5  c0-2.761-2.238-5-5-5s-5,2.239-5,5v5.831h-5.831c-2.762,0-5,2.239-5,5S145.435,20.831,148.196,20.831z M47.493,130.918  c2.762,0,5-2.239,5-5v-7.422c0-2.761-2.238-5-5-5s-5,2.239-5,5v7.422C42.493,128.679,44.731,130.918,47.493,130.918z   M181.738,290.761h-69.834c0.163-0.138,0.316-0.286,0.476-0.426c0.311-0.271,0.62-0.544,0.922-0.825  c0.228-0.211,0.451-0.426,0.673-0.642c0.292-0.283,0.581-0.568,0.865-0.859c0.218-0.223,0.432-0.448,0.645-0.676  c0.279-0.299,0.552-0.602,0.823-0.909c0.203-0.231,0.406-0.462,0.604-0.697c0.269-0.319,0.531-0.644,0.79-0.971  c0.185-0.233,0.372-0.465,0.552-0.702c0.266-0.35,0.522-0.708,0.777-1.066c0.16-0.225,0.324-0.446,0.48-0.674  c0.283-0.415,0.553-0.838,0.822-1.263c0.115-0.181,0.235-0.358,0.347-0.541c0.374-0.611,0.733-1.232,1.075-1.863  c0.062-0.115,0.118-0.233,0.179-0.349c0.276-0.52,0.546-1.044,0.801-1.577c0.11-0.23,0.21-0.465,0.316-0.697  c0.194-0.426,0.387-0.852,0.568-1.286c0.111-0.267,0.213-0.538,0.319-0.807c0.16-0.407,0.317-0.815,0.464-1.228  c0.103-0.287,0.198-0.577,0.294-0.867c0.134-0.405,0.264-0.811,0.386-1.221c0.089-0.299,0.174-0.599,0.257-0.901  c0.112-0.411,0.218-0.824,0.319-1.239c0.073-0.305,0.146-0.61,0.212-0.918c0.092-0.424,0.175-0.85,0.254-1.278  c0.056-0.304,0.114-0.607,0.164-0.913c0.073-0.448,0.133-0.9,0.191-1.352c0.038-0.292,0.08-0.582,0.112-0.875  c0.054-0.501,0.092-1.007,0.128-1.513c0.018-0.249,0.043-0.496,0.057-0.747c0.041-0.758,0.064-1.52,0.064-2.287  c0-0.001,0-0.002,0-0.002v0V116.165h98.069h66.812v123.792c0,2.761,2.238,5,5,5s5-2.239,5-5V111.165c0-2.761-2.238-5-5-5h-66.812  V61.32c0-2.761-2.238-5-5-5H47.493c-2.762,0-5,2.239-5,5v40.87c0,2.761,2.238,5,5,5s5-2.239,5-5V66.32h167.415v39.845h-98.069  c-2.762,0-5,2.239-5,5v147.423c0,17.74-14.433,32.173-32.173,32.173s-32.173-14.433-32.173-32.173V142.572c0-2.761-2.238-5-5-5  s-5,2.239-5,5v116.016c0,23.253,18.917,42.171,42.17,42.173c0.001,0,0.002,0,0.003,0h97.072c2.762,0,5-2.239,5-5  S184.5,290.761,181.738,290.761z M248.784,149.583h-76.802c-2.762,0-5,2.239-5,5s2.238,5,5,5h76.802c2.762,0,5-2.239,5-5  S251.546,149.583,248.784,149.583z M248.784,182.613h-76.802c-2.762,0-5,2.239-5,5s2.238,5,5,5h76.802c2.762,0,5-2.239,5-5  S251.546,182.613,248.784,182.613z M248.784,215.643h-76.802c-2.762,0-5,2.239-5,5s2.238,5,5,5h76.802c2.762,0,5-2.239,5-5  S251.546,215.643,248.784,215.643z M457.484,310.404v139.019c0,27.839-22.648,50.497-50.487,50.508L240.434,500  c-0.002,0-0.002,0-0.002,0s0,0,0,0s0,0-0.001,0c-23.254,0-42.172-18.918-42.172-42.173V260.559c0-2.761,2.238-5,5-5h177.415  c2.762,0,5,2.239,5,5v44.845h66.811C455.246,305.404,457.484,307.642,457.484,310.404z M240.431,490  c0.275,0,0.547-0.014,0.821-0.021c0.283-0.007,0.567-0.008,0.847-0.022c0.252-0.013,0.501-0.039,0.752-0.057  c0.293-0.022,0.588-0.038,0.879-0.068c0.237-0.024,0.469-0.06,0.705-0.09c0.302-0.038,0.605-0.07,0.905-0.116  c0.203-0.031,0.402-0.073,0.603-0.108c0.327-0.057,0.656-0.11,0.979-0.176c0.183-0.038,0.362-0.085,0.544-0.126  c0.338-0.076,0.677-0.148,1.011-0.235c0.156-0.04,0.308-0.089,0.463-0.132c0.356-0.098,0.712-0.194,1.063-0.303  c0.123-0.038,0.243-0.084,0.365-0.124c0.379-0.123,0.757-0.247,1.13-0.384c0.089-0.033,0.176-0.071,0.265-0.105  c0.401-0.151,0.801-0.306,1.195-0.473c0.071-0.03,0.139-0.065,0.21-0.095c0.408-0.177,0.814-0.358,1.214-0.551  c0.057-0.027,0.111-0.058,0.168-0.086c0.411-0.201,0.818-0.408,1.219-0.626c0.026-0.014,0.052-0.03,0.078-0.045  c0.429-0.235,0.853-0.478,1.269-0.732c0.002-0.001,0.004-0.003,0.007-0.004c6.182-3.767,11.001-9.56,13.528-16.449  c0.02-0.054,0.036-0.109,0.055-0.163c0.159-0.439,0.311-0.882,0.451-1.33c0.029-0.093,0.052-0.189,0.081-0.282  c0.124-0.411,0.246-0.824,0.353-1.242c0.039-0.15,0.068-0.303,0.105-0.453c0.089-0.366,0.179-0.731,0.255-1.101  c0.039-0.191,0.068-0.385,0.103-0.577c0.062-0.334,0.128-0.667,0.18-1.005c0.035-0.228,0.058-0.459,0.088-0.688  c0.04-0.306,0.086-0.61,0.117-0.919c0.022-0.22,0.033-0.444,0.051-0.665c0.07-0.865,0.116-1.736,0.116-2.619V310.404  c0-2.761,2.238-5,5-5h98.07v-39.845H208.259v192.269C208.259,475.567,222.691,490,240.431,490z M447.484,315.404h-66.811h-98.07  v142.424c0,0.768-0.023,1.53-0.064,2.288c-0.014,0.252-0.039,0.501-0.057,0.753c-0.036,0.504-0.074,1.008-0.127,1.507  c-0.032,0.295-0.074,0.586-0.112,0.879c-0.058,0.45-0.118,0.9-0.19,1.346c-0.05,0.309-0.108,0.614-0.165,0.921  c-0.079,0.425-0.161,0.848-0.252,1.269c-0.068,0.311-0.14,0.62-0.215,0.929c-0.099,0.41-0.203,0.818-0.314,1.223  c-0.084,0.308-0.171,0.614-0.262,0.919c-0.12,0.401-0.247,0.799-0.378,1.195c-0.099,0.299-0.197,0.597-0.303,0.893  c-0.143,0.401-0.296,0.798-0.451,1.193c-0.11,0.281-0.216,0.563-0.332,0.841c-0.173,0.415-0.358,0.824-0.544,1.232  c-0.114,0.25-0.221,0.502-0.34,0.75c-0.234,0.489-0.482,0.968-0.734,1.446c-0.083,0.159-0.16,0.321-0.245,0.479  c-0.34,0.626-0.696,1.241-1.066,1.847c-0.123,0.201-0.255,0.395-0.381,0.594c-0.257,0.406-0.515,0.812-0.786,1.209  c-0.164,0.24-0.336,0.473-0.505,0.709c-0.247,0.346-0.494,0.692-0.751,1.03c-0.187,0.246-0.38,0.486-0.572,0.727  c-0.253,0.319-0.508,0.636-0.77,0.947c-0.203,0.241-0.41,0.478-0.619,0.714c-0.266,0.302-0.534,0.6-0.808,0.894  c-0.215,0.231-0.433,0.459-0.653,0.685c-0.281,0.288-0.567,0.572-0.856,0.852c-0.225,0.218-0.449,0.434-0.679,0.647  c-0.302,0.28-0.61,0.552-0.92,0.823c-0.158,0.139-0.31,0.285-0.47,0.421l139.311-0.058c22.327-0.009,40.491-18.181,40.491-40.508  V315.404z M322.748,353.822c0,2.761,2.238,5,5,5h76.801c2.762,0,5-2.239,5-5s-2.238-5-5-5h-76.801  C324.986,348.822,322.748,351.061,322.748,353.822z M404.549,381.852h-76.801c-2.762,0-5,2.239-5,5s2.238,5,5,5h76.801  c2.762,0,5-2.239,5-5S407.311,381.852,404.549,381.852z M404.549,414.882h-76.801c-2.762,0-5,2.239-5,5s2.238,5,5,5h76.801  c2.762,0,5-2.239,5-5S407.311,414.882,404.549,414.882z M176.703,489.912h-70.212c-12.013,0-21.786-9.773-21.786-21.785v-65.314  c0-2.761-2.238-5-5-5H58.694c-2.384,0-4.582-1.391-5.604-3.546c-1.021-2.153-0.705-4.737,0.804-6.581l32.212-39.373  c1.183-1.445,2.932-2.274,4.8-2.274s3.617,0.829,4.8,2.274l32.211,39.372c1.51,1.846,1.825,4.429,0.804,6.584  c-1.021,2.153-3.219,3.545-5.603,3.545h-21.011c-2.762,0-5,2.239-5,5v65.314c0,5.174,4.21,9.383,9.384,9.383h52.536  c2.762,0,5-2.239,5-5s-2.238-5-5-5h-51.92v-59.697h16.011c6.228,0,11.974-3.636,14.639-9.262c2.668-5.625,1.844-12.376-2.099-17.198  l-32.212-39.373c-3.089-3.777-7.66-5.943-12.54-5.943s-9.451,2.166-12.54,5.942l-32.213,39.374  c-3.941,4.821-4.766,11.571-2.099,17.195c2.666,5.628,8.412,9.264,14.64,9.264h16.011v60.314c0,17.527,14.259,31.785,31.786,31.785  h70.212c2.762,0,5-2.239,5-5S179.465,489.912,176.703,489.912z M324.291,66.32h69.218c12.013,0,21.786,9.773,21.786,21.785v65.314  c0,2.761,2.238,5,5,5h21.011c2.384,0,4.582,1.391,5.604,3.546c1.021,2.153,0.705,4.737-0.804,6.582l-32.212,39.373  c-1.183,1.445-2.932,2.274-4.8,2.274s-3.617-0.829-4.8-2.274l-32.211-39.372c-1.51-1.846-1.825-4.429-0.804-6.584  c1.021-2.153,3.219-3.545,5.603-3.545h21.011c2.762,0,5-2.239,5-5V88.105c0-5.174-4.21-9.383-9.384-9.383h-52.536  c-2.762,0-5,2.239-5,5s2.238,5,5,5h51.92v59.697h-16.011c-6.228,0-11.974,3.636-14.639,9.262  c-2.668,5.626-1.844,12.376,2.099,17.198l32.212,39.372c3.089,3.777,7.659,5.943,12.54,5.943s9.451-2.166,12.54-5.942l32.213-39.374  c3.941-4.821,4.766-11.571,2.099-17.195c-2.666-5.627-8.412-9.263-14.64-9.263h-16.011V88.105c0-17.527-14.259-31.785-31.786-31.785  h-69.218c-2.762,0-5,2.239-5,5S321.529,66.32,324.291,66.32z M296.72,66.32h8.349c2.762,0,5-2.239,5-5s-2.238-5-5-5h-8.349  c-2.762,0-5,2.239-5,5S293.958,66.32,296.72,66.32z M200.259,490h-6.005c-2.762,0-5,2.239-5,5s2.238,5,5,5h6.005  c2.762,0,5-2.239,5-5S203.021,490,200.259,490z"/>
</svg>
