<?xml version="1.0" encoding="utf-8"?>
<!-- Generator: Adobe Illustrator 22.0.0, SVG Export Plug-In . SVG Version: 6.00 Build 0)  -->
<svg xmlns="http://www.w3.org/2000/svg" xmlns:xlink="http://www.w3.org/1999/xlink" version="1.1" id="Layer_1" x="0px" y="0px" viewBox="0 0 500 500" style="enable-background:new 0 0 500 500;" xml:space="preserve" width="512" height="512">
<style type="text/css">
	.st0{fill:#83E1E5;}
	.st1{fill:#AAB1BA;}
	.st2{fill:#ECF4F7;}
	.st3{fill:#FDDF7F;}
	.st4{fill:#1C1D21;}
	.st5{fill:#FFFFFF;}
</style>
<g>
	<g>
		<path class="st0" d="M304.288,262.624c0-10.509,6.077-20.162,15.68-24.431c34.12-15.168,57.556-50.013,55.889-90.13    c-2.063-49.672-43.063-89.484-92.773-90.177c-52.643-0.735-95.548,41.719-95.548,94.193c0,38.783,23.437,72.089,56.919,86.534    c9.853,4.251,16.241,13.943,16.241,24.674v11.947h43.592V262.624z"/>
	</g>
</g>
<g>
	<g>
		<path class="st3" d="M423.175,411.347L423.175,411.347c0-9.24-7.49-16.731-16.731-16.731c9.443,0,17.058-7.823,16.72-17.341    c-0.322-9.066-8.049-16.12-17.121-16.12l-78.999,0c-12.568,0-22.756-10.188-22.756-22.756v-19.918h-43.592v19.781    c0,32.025-25.961,57.986-57.986,57.986h-18.54V495h221.873c9.072,0,16.798-7.054,17.121-16.12    c0.339-9.518-7.277-17.342-16.72-17.342c9.24,0,16.731-7.49,16.731-16.731c0-9.24-7.49-16.731-16.731-16.731    C415.684,428.077,423.175,420.587,423.175,411.347z"/>
	</g>
</g>
<g>
	<g>
		<rect x="123.374" y="396.248" class="st1" width="60.796" height="98.752"/>
	</g>
</g>
<g>
	<g>
		<path class="st2" d="M313.031,291.724v-11.357c0-2.835-2.298-5.133-5.133-5.133h-50.92c-2.835,0-5.133,2.298-5.133,5.133v11.357    c0,2.835,2.298,5.133,5.133,5.133c-2.835,0-5.133,2.298-5.133,5.133v11.357c0,2.835,2.298,5.133,5.133,5.133h50.92    c2.835,0,5.133-2.298,5.133-5.133V301.99c0-2.835-2.298-5.133-5.133-5.133C310.732,296.857,313.031,294.559,313.031,291.724z"/>
	</g>
</g>
<path class="st4" d="M135.922,137.462c0-2.761,2.239-5,5-5h5.833v-5.833c0-2.761,2.239-5,5-5s5,2.239,5,5v5.833h5.833  c2.761,0,5,2.239,5,5s-2.239,5-5,5h-5.833v5.833c0,2.761-2.239,5-5,5s-5-2.239-5-5v-5.833h-5.833  C138.161,142.462,135.922,140.224,135.922,137.462z M402.287,142.462h5.833v5.833c0,2.761,2.238,5,5,5s5-2.239,5-5v-5.833h5.833  c2.762,0,5-2.239,5-5s-2.238-5-5-5h-5.833v-5.833c0-2.761-2.238-5-5-5s-5,2.239-5,5v5.833h-5.833c-2.762,0-5,2.239-5,5  S399.525,142.462,402.287,142.462z M271.929,20.833h5.833v5.833c0,2.761,2.238,5,5,5s5-2.239,5-5v-5.833h5.833c2.762,0,5-2.239,5-5  s-2.238-5-5-5h-5.833V5c0-2.761-2.238-5-5-5s-5,2.239-5,5v5.833h-5.833c-2.762,0-5,2.239-5,5S269.167,20.833,271.929,20.833z   M420.295,394.616c4.81,3.989,7.879,10.008,7.879,16.731c0,6.723-3.069,12.741-7.879,16.731c4.81,3.989,7.879,10.008,7.879,16.731  s-3.069,12.741-7.879,16.731c4.81,3.989,7.879,10.008,7.879,16.731c0,11.982-9.748,21.73-21.73,21.73h-38.997H184.17H99.573  c-2.761,0-5-2.239-5-5s2.239-5,5-5h55.908v-88.752h-32.107c-2.761,0-5-2.239-5-5s2.239-5,5-5h60.796h18.54  c29.216,0,52.985-23.769,52.985-52.986v-5.284c0-2.761,2.238-5,5-5s5,2.239,5,5v5.284c0,34.73-28.255,62.986-62.985,62.986h-13.54  V490h159.992c-0.033-0.051-0.061-0.106-0.094-0.158c-0.213-0.338-0.419-0.681-0.614-1.031c-0.027-0.048-0.055-0.094-0.082-0.142  c-0.215-0.393-0.416-0.795-0.607-1.202c-0.048-0.103-0.094-0.208-0.141-0.312c-0.153-0.34-0.298-0.685-0.434-1.034  c-0.034-0.087-0.07-0.174-0.103-0.262c-0.158-0.423-0.303-0.851-0.435-1.286c-0.029-0.096-0.054-0.193-0.082-0.289  c-0.104-0.36-0.198-0.724-0.284-1.092c-0.026-0.112-0.053-0.223-0.078-0.335c-0.097-0.449-0.182-0.902-0.251-1.36  c-0.011-0.071-0.017-0.144-0.027-0.215c-0.055-0.398-0.099-0.799-0.132-1.204c-0.01-0.126-0.021-0.252-0.029-0.379  c-0.031-0.474-0.052-0.95-0.052-1.431c0-0.399,0.012-0.795,0.034-1.189c0.007-0.13,0.02-0.257,0.029-0.386  c0.019-0.263,0.039-0.526,0.067-0.786c0.016-0.152,0.038-0.302,0.058-0.454c0.031-0.236,0.063-0.471,0.101-0.704  c0.026-0.157,0.055-0.313,0.084-0.469c0.042-0.225,0.086-0.449,0.135-0.671c0.034-0.157,0.07-0.312,0.108-0.468  c0.054-0.221,0.111-0.439,0.171-0.657c0.042-0.151,0.084-0.302,0.129-0.452c0.067-0.222,0.138-0.441,0.212-0.66  c0.047-0.141,0.093-0.283,0.143-0.423c0.084-0.233,0.174-0.463,0.266-0.693c0.048-0.121,0.093-0.243,0.143-0.363  c0.127-0.302,0.261-0.6,0.401-0.894c0.021-0.043,0.039-0.088,0.06-0.131c0.163-0.338,0.335-0.671,0.514-0.999  c0.053-0.097,0.11-0.19,0.165-0.286c0.13-0.229,0.261-0.458,0.4-0.682c0.073-0.119,0.15-0.234,0.225-0.351  c0.126-0.197,0.254-0.392,0.386-0.584c0.085-0.123,0.172-0.244,0.26-0.365c0.131-0.182,0.264-0.363,0.401-0.541  c0.093-0.12,0.187-0.24,0.281-0.358c0.139-0.173,0.281-0.344,0.425-0.513c0.098-0.115,0.197-0.23,0.298-0.344  c0.151-0.169,0.305-0.335,0.461-0.5c0.1-0.105,0.198-0.211,0.3-0.315c0.17-0.173,0.345-0.341,0.521-0.508  c0.093-0.089,0.184-0.179,0.279-0.266c0.221-0.203,0.448-0.4,0.678-0.594c0.049-0.041,0.094-0.085,0.143-0.125  c-0.042-0.035-0.081-0.073-0.123-0.108c-0.238-0.2-0.472-0.404-0.701-0.614c-0.091-0.083-0.177-0.169-0.266-0.254  c-0.181-0.171-0.36-0.344-0.535-0.521c-0.098-0.1-0.194-0.202-0.29-0.304c-0.159-0.168-0.317-0.338-0.471-0.511  c-0.098-0.11-0.194-0.222-0.289-0.334c-0.147-0.173-0.292-0.347-0.434-0.524c-0.093-0.116-0.184-0.232-0.274-0.349  c-0.139-0.181-0.274-0.365-0.407-0.55c-0.085-0.119-0.171-0.237-0.254-0.357c-0.135-0.195-0.264-0.394-0.392-0.593  c-0.073-0.114-0.149-0.227-0.22-0.343c-0.14-0.227-0.273-0.459-0.405-0.691c-0.053-0.093-0.108-0.184-0.16-0.278  c-0.18-0.329-0.352-0.662-0.515-1.001c-0.019-0.039-0.035-0.08-0.054-0.12c-0.142-0.298-0.277-0.6-0.406-0.906  c-0.05-0.119-0.094-0.24-0.142-0.359c-0.092-0.231-0.183-0.462-0.267-0.697c-0.05-0.139-0.095-0.279-0.142-0.419  c-0.074-0.22-0.146-0.441-0.213-0.664c-0.045-0.149-0.086-0.299-0.128-0.45c-0.06-0.218-0.118-0.438-0.171-0.658  c-0.038-0.155-0.074-0.311-0.108-0.467c-0.049-0.223-0.093-0.447-0.135-0.672c-0.029-0.156-0.058-0.311-0.084-0.469  c-0.038-0.233-0.07-0.468-0.101-0.704c-0.02-0.151-0.041-0.302-0.058-0.454c-0.028-0.26-0.048-0.523-0.067-0.786  c-0.009-0.129-0.022-0.257-0.029-0.386c-0.021-0.394-0.034-0.79-0.034-1.189s0.012-0.795,0.034-1.189  c0.007-0.13,0.02-0.257,0.029-0.386c0.019-0.263,0.039-0.526,0.067-0.786c0.016-0.152,0.038-0.302,0.058-0.454  c0.031-0.236,0.063-0.471,0.101-0.704c0.026-0.157,0.055-0.313,0.084-0.469c0.042-0.225,0.086-0.449,0.135-0.671  c0.034-0.157,0.07-0.312,0.108-0.468c0.054-0.221,0.111-0.439,0.171-0.657c0.042-0.151,0.084-0.302,0.129-0.452  c0.067-0.222,0.138-0.441,0.212-0.66c0.047-0.141,0.093-0.283,0.143-0.423c0.084-0.233,0.174-0.463,0.266-0.693  c0.048-0.121,0.093-0.243,0.143-0.363c0.127-0.302,0.261-0.6,0.401-0.894c0.021-0.043,0.039-0.088,0.06-0.131  c0.163-0.338,0.335-0.671,0.514-0.999c0.053-0.097,0.11-0.19,0.165-0.286c0.13-0.229,0.261-0.458,0.4-0.682  c0.073-0.119,0.15-0.234,0.225-0.351c0.126-0.197,0.254-0.392,0.386-0.584c0.085-0.123,0.172-0.244,0.26-0.365  c0.131-0.182,0.264-0.363,0.401-0.541c0.093-0.12,0.187-0.24,0.281-0.358c0.139-0.173,0.281-0.344,0.425-0.513  c0.098-0.115,0.197-0.23,0.298-0.344c0.151-0.169,0.305-0.335,0.461-0.5c0.1-0.105,0.198-0.211,0.3-0.315  c0.17-0.173,0.345-0.341,0.521-0.508c0.093-0.089,0.184-0.179,0.279-0.266c0.221-0.203,0.448-0.4,0.678-0.594  c0.049-0.041,0.094-0.085,0.143-0.125c-0.042-0.035-0.081-0.073-0.123-0.108c-0.238-0.2-0.472-0.404-0.701-0.614  c-0.091-0.083-0.177-0.169-0.266-0.254c-0.181-0.171-0.36-0.344-0.535-0.521c-0.098-0.1-0.194-0.202-0.29-0.304  c-0.159-0.168-0.317-0.338-0.471-0.511c-0.098-0.11-0.194-0.222-0.289-0.334c-0.147-0.173-0.292-0.347-0.434-0.524  c-0.093-0.116-0.184-0.232-0.274-0.349c-0.139-0.181-0.274-0.365-0.407-0.55c-0.085-0.119-0.171-0.237-0.254-0.357  c-0.135-0.195-0.264-0.394-0.392-0.593c-0.073-0.114-0.149-0.227-0.22-0.343c-0.14-0.227-0.273-0.459-0.405-0.691  c-0.053-0.093-0.108-0.184-0.16-0.278c-0.18-0.329-0.352-0.662-0.515-1.001c-0.019-0.039-0.035-0.08-0.054-0.12  c-0.142-0.298-0.277-0.6-0.406-0.906c-0.05-0.119-0.094-0.24-0.142-0.359c-0.092-0.231-0.183-0.462-0.267-0.697  c-0.05-0.139-0.095-0.279-0.142-0.419c-0.074-0.22-0.146-0.441-0.213-0.664c-0.045-0.149-0.086-0.299-0.128-0.45  c-0.06-0.218-0.118-0.438-0.171-0.658c-0.038-0.155-0.074-0.311-0.108-0.467c-0.049-0.223-0.093-0.447-0.135-0.672  c-0.029-0.156-0.058-0.311-0.084-0.469c-0.038-0.233-0.07-0.468-0.101-0.704c-0.02-0.151-0.041-0.302-0.058-0.454  c-0.028-0.26-0.048-0.523-0.067-0.786c-0.009-0.129-0.022-0.257-0.029-0.386c-0.021-0.394-0.034-0.79-0.034-1.189  s0.012-0.795,0.034-1.189c0.007-0.129,0.02-0.257,0.029-0.386c0.019-0.263,0.039-0.526,0.067-0.787  c0.017-0.152,0.038-0.302,0.058-0.453c0.031-0.236,0.063-0.471,0.101-0.705c0.026-0.157,0.055-0.312,0.084-0.468  c0.042-0.225,0.086-0.45,0.135-0.673c0.034-0.156,0.07-0.311,0.108-0.466c0.054-0.221,0.111-0.441,0.172-0.66  c0.042-0.15,0.083-0.3,0.128-0.449c0.067-0.224,0.139-0.445,0.214-0.665c0.047-0.14,0.092-0.28,0.142-0.418  c0.084-0.235,0.176-0.467,0.268-0.699c0.047-0.119,0.092-0.239,0.141-0.357c0.128-0.306,0.264-0.608,0.406-0.907  c0.019-0.039,0.035-0.08,0.054-0.119c0.163-0.339,0.335-0.672,0.515-1.001c0.052-0.094,0.107-0.185,0.16-0.279  c0.132-0.232,0.264-0.463,0.404-0.69c0.072-0.117,0.148-0.231,0.222-0.346c0.128-0.199,0.256-0.396,0.39-0.59  c0.084-0.121,0.17-0.24,0.256-0.36c0.133-0.184,0.267-0.367,0.405-0.546c0.091-0.119,0.184-0.236,0.277-0.353  c0.141-0.176,0.284-0.349,0.431-0.52c0.097-0.113,0.194-0.227,0.293-0.338c0.152-0.171,0.309-0.339,0.466-0.506  c0.098-0.104,0.195-0.208,0.295-0.309c0.173-0.175,0.35-0.346,0.529-0.515c0.091-0.086,0.179-0.174,0.271-0.259  c0.227-0.208,0.458-0.409,0.693-0.607c0.044-0.037,0.086-0.077,0.13-0.114c-0.044-0.037-0.086-0.077-0.13-0.114  c-0.235-0.198-0.467-0.399-0.693-0.607c-0.092-0.085-0.181-0.173-0.271-0.259c-0.178-0.17-0.356-0.34-0.529-0.515  c-0.1-0.102-0.197-0.206-0.295-0.309c-0.157-0.167-0.314-0.334-0.466-0.506c-0.099-0.112-0.196-0.225-0.293-0.338  c-0.146-0.171-0.289-0.344-0.429-0.519c-0.094-0.117-0.187-0.235-0.279-0.355c-0.137-0.179-0.271-0.361-0.403-0.544  c-0.086-0.12-0.173-0.24-0.258-0.362c-0.133-0.193-0.261-0.39-0.388-0.587c-0.074-0.116-0.151-0.231-0.224-0.348  c-0.139-0.225-0.271-0.455-0.402-0.686c-0.054-0.095-0.11-0.187-0.163-0.282c-0.18-0.328-0.352-0.661-0.515-1  c-0.02-0.041-0.037-0.084-0.057-0.125c-0.141-0.297-0.276-0.597-0.403-0.901c-0.05-0.119-0.094-0.24-0.142-0.36  c-0.092-0.23-0.182-0.461-0.267-0.696c-0.05-0.139-0.095-0.281-0.143-0.421c-0.074-0.219-0.146-0.439-0.213-0.662  c-0.045-0.149-0.086-0.3-0.128-0.451c-0.06-0.218-0.118-0.437-0.171-0.658c-0.038-0.155-0.074-0.311-0.108-0.467  c-0.049-0.222-0.093-0.446-0.135-0.671c-0.029-0.156-0.058-0.312-0.084-0.469c-0.038-0.233-0.07-0.468-0.101-0.703  c-0.02-0.151-0.041-0.302-0.058-0.454c-0.028-0.26-0.048-0.523-0.067-0.786c-0.009-0.129-0.022-0.257-0.029-0.386  c-0.021-0.394-0.034-0.79-0.034-1.189c0-0.481,0.021-0.957,0.052-1.431c0.008-0.127,0.019-0.253,0.029-0.379  c0.033-0.404,0.077-0.805,0.132-1.202c0.01-0.072,0.017-0.145,0.028-0.217c0.068-0.458,0.154-0.91,0.25-1.359  c0.024-0.114,0.052-0.226,0.078-0.339c0.085-0.366,0.179-0.728,0.283-1.086c0.028-0.098,0.054-0.197,0.084-0.294  c0.132-0.433,0.276-0.861,0.434-1.283c0.034-0.09,0.071-0.178,0.106-0.267c0.135-0.346,0.278-0.689,0.43-1.026  c0.048-0.106,0.094-0.213,0.144-0.318c0.19-0.406,0.39-0.806,0.604-1.197c0.028-0.051,0.058-0.1,0.086-0.151  c0.193-0.347,0.397-0.687,0.609-1.021c0.033-0.053,0.062-0.108,0.095-0.16l-22.118,0c-6.747,0-12.94-2.42-17.756-6.438v4.641  c0,21.9-8.528,42.49-24.015,57.976c-1.951,1.952-5.119,1.952-7.07,0c-1.953-1.953-1.953-5.119,0-7.071  c13.597-13.597,21.085-31.676,21.085-50.905v-31.38c0-2.761,2.238-5,5-5s5,2.239,5,5v5.421c0,9.791,7.965,17.756,17.756,17.756  l40.403,0h38.997c11.982,0,21.73,9.748,21.73,21.731C428.175,384.608,425.105,390.627,420.295,394.616z M165.481,490h13.688v-88.752  h-13.688V490z M406.444,466.539h-38.997c-6.468,0-11.73,5.263-11.73,11.731s5.263,11.73,11.73,11.73h38.997  c6.468,0,11.73-5.262,11.73-11.73S412.912,466.539,406.444,466.539z M406.444,433.077h-38.997c-6.468,0-11.73,5.263-11.73,11.731  s5.263,11.73,11.73,11.73h38.997c6.468,0,11.73-5.262,11.73-11.73S412.912,433.077,406.444,433.077z M406.444,399.616h-38.997  c-6.468,0-11.73,5.262-11.73,11.731s5.263,11.73,11.73,11.73h38.997c6.468,0,11.73-5.262,11.73-11.73  S412.912,399.616,406.444,399.616z M406.444,389.616c6.468,0,11.73-5.262,11.73-11.731s-5.263-11.731-11.73-11.731h-38.997  c-6.468,0-11.73,5.262-11.73,11.731s5.263,11.731,11.73,11.731H406.444z M182.536,152.079c0-26.76,10.494-51.846,29.55-70.638  c19.051-18.788,44.328-28.921,71.067-28.555c25.329,0.354,49.361,10.345,67.669,28.135c18.314,17.796,28.979,41.532,30.031,66.834  c1.703,41.002-21.397,78.256-58.854,94.907c-7.722,3.433-12.711,11.229-12.711,19.862v7.717c4.93,0.681,8.742,4.912,8.742,10.026  v11.357c0,1.874-0.521,3.625-1.412,5.133c0.891,1.508,1.412,3.259,1.412,5.133v11.357c0,5.587-4.546,10.133-10.133,10.133h-50.92  c-5.587,0-10.133-4.546-10.133-10.133V301.99c0-1.874,0.521-3.625,1.412-5.133c-0.891-1.508-1.412-3.259-1.412-5.133v-11.357  c0-5.152,3.868-9.409,8.851-10.043v-7.037c0-8.735-5.189-16.618-13.221-20.083C206.063,227.496,182.536,191.727,182.536,152.079z   M260.695,280.234h-3.718c-0.073,0-0.133,0.06-0.133,0.133v11.357c0,0.073,0.06,0.133,0.133,0.133h50.92  c0.073,0,0.133-0.06,0.133-0.133v-11.357c0-0.073-0.06-0.133-0.133-0.133h-3.609H260.695z M308.03,301.99  c0-0.073-0.06-0.133-0.133-0.133h-50.92c-0.073,0-0.133,0.06-0.133,0.133v11.357c0,0.073,0.06,0.133,0.133,0.133h50.92  c0.073,0,0.133-0.06,0.133-0.133V301.99z M192.536,152.079c0,35.653,21.157,67.817,53.9,81.943  c11.7,5.047,19.26,16.534,19.26,29.265v6.947h11.043v-92.288l-22.209-22.43c-1.943-1.962-1.928-5.128,0.035-7.071  c1.962-1.943,5.128-1.927,7.07,0.035l20.104,20.303l20.103-20.303c1.942-1.962,5.108-1.978,7.07-0.035  c1.963,1.943,1.979,5.109,0.035,7.071l-22.208,22.429v92.288h12.55v-7.61c0-12.58,7.32-23.963,18.648-28.999  c33.683-14.974,54.457-48.477,52.924-85.354c-1.961-47.22-40.549-84.725-87.847-85.385c-24.084-0.325-46.776,8.783-63.907,25.676  C201.972,105.459,192.536,128.017,192.536,152.079z M80.485,490h-4.438c-2.761,0-5,2.239-5,5s2.239,5,5,5h4.438c2.761,0,5-2.239,5-5  S83.247,490,80.485,490z"/>
</svg>
