<?xml version="1.0" encoding="utf-8"?>
<!-- Generator: Adobe Illustrator 22.0.0, SVG Export Plug-In . SVG Version: 6.00 Build 0)  -->
<svg xmlns="http://www.w3.org/2000/svg" xmlns:xlink="http://www.w3.org/1999/xlink" version="1.1" id="Layer_1" x="0px" y="0px" viewBox="0 0 500 500" style="enable-background:new 0 0 500 500;" xml:space="preserve" width="512" height="512">
<style type="text/css">
	.st0{fill:#83E1E5;}
	.st1{fill:#AAB1BA;}
	.st2{fill:#ECF4F7;}
	.st3{fill:#FDDF7F;}
	.st4{fill:#1C1D21;}
	.st5{fill:#FFFFFF;}
</style>
<g>
	<g>
		<path class="st3" d="M250,96.689L250,96.689c-9.661,0-17.493-7.832-17.493-17.493V22.493C232.507,12.832,240.339,5,250,5h0    c9.661,0,17.493,7.832,17.493,17.493v56.703C267.493,88.857,259.661,96.689,250,96.689z"/>
	</g>
</g>
<g>
	<g>
		<path class="st3" d="M250,495L250,495c-9.661,0-17.493-7.832-17.493-17.493v-56.703c0-9.661,7.832-17.493,17.493-17.493h0    c9.661,0,17.493,7.832,17.493,17.493v56.703C267.493,487.168,259.661,495,250,495z"/>
	</g>
</g>
<g>
	<g>
		<path class="st3" d="M403.311,250L403.311,250c0-9.661,7.832-17.493,17.493-17.493h56.703c9.661,0,17.493,7.832,17.493,17.493v0    c0,9.661-7.832,17.493-17.493,17.493h-56.703C411.143,267.493,403.311,259.661,403.311,250z"/>
	</g>
</g>
<g>
	<g>
		<path class="st3" d="M5,250L5,250c0-9.661,7.832-17.493,17.493-17.493h56.703c9.661,0,17.493,7.832,17.493,17.493v0    c0,9.661-7.832,17.493-17.493,17.493H22.493C12.832,267.493,5,259.661,5,250z"/>
	</g>
</g>
<g>
	<g>
		<path class="st0" d="M403.311,250c0-9.662,7.832-17.493,17.493-17.493h27.578c-8.359-96.03-84.859-172.53-180.889-180.889v27.579    c0,9.661-7.832,17.493-17.493,17.493c-9.661,0-17.493-7.832-17.493-17.493V51.618c-96.03,8.359-172.53,84.859-180.889,180.889    h27.578c9.661,0,17.493,7.831,17.493,17.493c0,9.661-7.832,17.493-17.493,17.493H51.618    c8.359,96.03,84.859,172.53,180.889,180.889v-27.579c0-9.661,7.832-17.493,17.493-17.493c9.661,0,17.493,7.832,17.493,17.493    v27.579c96.03-8.359,172.53-84.859,180.889-180.889h-27.578C411.143,267.493,403.311,259.661,403.311,250z"/>
	</g>
</g>
<g>
	<g>
		<path class="st1" d="M343.996,367.696v-54.479c0-16.919-13.715-30.635-30.634-30.635H186.638    c-16.919,0-30.635,13.716-30.635,30.635v54.479H343.996z"/>
	</g>
</g>
<g>
	<g>
		<circle class="st3" cx="250" cy="207.443" r="75.139"/>
	</g>
</g>
<g>
	<g>
		<polygon class="st2" points="266.8,367.696 262.752,282.582 237.248,282.582 233.2,367.696   "/>
	</g>
</g>
<path class="st4" d="M177.706,15.833c0-2.762,2.238-5,5-5h5.833V5c0-2.762,2.238-5,5-5s5,2.238,5,5v5.833h5.833c2.762,0,5,2.238,5,5  s-2.238,5-5,5h-5.833v5.833c0,2.762-2.238,5-5,5s-5-2.238-5-5v-5.833h-5.833C179.944,20.833,177.706,18.595,177.706,15.833z   M317.294,479.167h-5.833v-5.833c0-2.762-2.238-5-5-5s-5,2.238-5,5v5.833h-5.833c-2.762,0-5,2.238-5,5s2.238,5,5,5h5.833V495  c0,2.762,2.238,5,5,5s5-2.238,5-5v-5.833h5.833c2.762,0,5-2.238,5-5S320.056,479.167,317.294,479.167z M295.628,20.833h5.833v5.833  c0,2.762,2.238,5,5,5s5-2.238,5-5v-5.833h5.833c2.762,0,5-2.238,5-5s-2.238-5-5-5h-5.833V5c0-2.762-2.238-5-5-5s-5,2.238-5,5v5.833  h-5.833c-2.762,0-5,2.238-5,5S292.866,20.833,295.628,20.833z M204.372,479.167h-5.833v-5.833c0-2.762-2.238-5-5-5s-5,2.238-5,5  v5.833h-5.833c-2.762,0-5,2.238-5,5s2.238,5,5,5h5.833V495c0,2.762,2.238,5,5,5s5-2.238,5-5v-5.833h5.833c2.762,0,5-2.238,5-5  S207.134,479.167,204.372,479.167z M473.334,198.539h5.833v5.833c0,2.762,2.238,5,5,5s5-2.238,5-5v-5.833H495c2.762,0,5-2.238,5-5  s-2.238-5-5-5h-5.833v-5.833c0-2.762-2.238-5-5-5s-5,2.238-5,5v5.833h-5.833c-2.762,0-5,2.238-5,5S470.572,198.539,473.334,198.539z   M26.666,301.461h-5.833v-5.833c0-2.762-2.238-5-5-5s-5,2.238-5,5v5.833H5c-2.762,0-5,2.238-5,5s2.238,5,5,5h5.833v5.833  c0,2.762,2.238,5,5,5s5-2.238,5-5v-5.833h5.833c2.762,0,5-2.238,5-5S29.428,301.461,26.666,301.461z M495,301.461h-5.833v-5.833  c0-2.762-2.238-5-5-5s-5,2.238-5,5v5.833h-5.833c-2.762,0-5,2.238-5,5s2.238,5,5,5h5.833v5.833c0,2.762,2.238,5,5,5s5-2.238,5-5  v-5.833H495c2.762,0,5-2.238,5-5S497.762,301.461,495,301.461z M5,198.539h5.833v5.833c0,2.762,2.238,5,5,5s5-2.238,5-5v-5.833  h5.833c2.762,0,5-2.238,5-5s-2.238-5-5-5h-5.833v-5.833c0-2.762-2.238-5-5-5s-5,2.238-5,5v5.833H5c-2.762,0-5,2.238-5,5  S2.238,198.539,5,198.539z M500,250c0,12.402-10.091,22.493-22.493,22.493h-24.595c-2.343,21.36-8.02,42.094-16.905,61.695  c-0.836,1.845-2.654,2.937-4.557,2.937c-0.69,0-1.392-0.144-2.062-0.447c-2.515-1.14-3.63-4.103-2.489-6.618  c8.296-18.303,13.652-37.643,15.951-57.566h-22.047c-12.402,0-22.493-10.091-22.493-22.493s10.091-22.493,22.493-22.493h22.048  C432.549,137.901,362.098,67.45,272.493,57.148v22.048c0,12.402-10.091,22.493-22.493,22.493s-22.493-10.091-22.493-22.493V57.148  C137.902,67.45,67.451,137.901,57.148,227.507h22.048c12.402,0,22.493,10.091,22.493,22.493s-10.091,22.493-22.493,22.493H57.149  c2.299,19.924,7.655,39.264,15.951,57.566c1.141,2.516,0.025,5.479-2.489,6.618s-5.479,0.025-6.618-2.489  c-8.885-19.602-14.562-40.335-16.905-61.695H22.493C10.091,272.493,0,262.402,0,250s10.091-22.493,22.493-22.493h24.595  c5.051-45.913,25.739-89.032,58.563-121.856c32.825-32.825,75.944-53.512,121.856-58.563V22.493C227.507,10.091,237.598,0,250,0  s22.493,10.091,22.493,22.493v24.595c45.913,5.051,89.031,25.737,121.856,58.563c32.824,32.824,53.511,75.943,58.563,121.856h24.595  C489.909,227.507,500,237.598,500,250z M51.618,237.507H22.493C15.604,237.507,10,243.111,10,250s5.604,12.493,12.493,12.493h29.125  h27.578c6.889,0,12.493-5.604,12.493-12.493s-5.604-12.493-12.493-12.493H51.618z M262.493,51.618V22.493  C262.493,15.604,256.889,10,250,10s-12.493,5.604-12.493,12.493v29.125v27.578c0,6.889,5.604,12.493,12.493,12.493  s12.493-5.604,12.493-12.493V51.618z M490,250c0-6.889-5.604-12.493-12.493-12.493h-29.125h-27.578  c-6.889,0-12.493,5.604-12.493,12.493s5.604,12.493,12.493,12.493h27.578h29.125C484.396,262.493,490,256.889,490,250z   M190.705,325.139v27.034c0,2.762,2.238,5,5,5s5-2.238,5-5v-27.034c0-2.762-2.238-5-5-5S190.705,322.377,190.705,325.139z   M299.293,325.139v27.034c0,2.762,2.238,5,5,5s5-2.238,5-5v-27.034c0-2.762-2.238-5-5-5S299.293,322.377,299.293,325.139z   M186.639,277.582h24.647c-24.677-13.676-41.425-39.983-41.425-70.139c0-44.189,35.95-80.14,80.14-80.14s80.14,35.95,80.14,80.14  c0,30.155-16.749,56.463-41.425,70.139h24.648c19.648,0,35.634,15.985,35.634,35.635v38.956c0,2.762-2.238,5-5,5s-5-2.238-5-5  v-38.956c0-14.135-11.499-25.635-25.634-25.635h-45.367l3.029,63.688c0.132,2.758-1.998,5.101-4.757,5.231  c-0.081,0.004-0.161,0.006-0.241,0.006c-2.652,0-4.863-2.085-4.99-4.763l-3.052-64.163h-7.946c-0.013,0-0.026,0.001-0.039,0.001  s-0.026-0.001-0.039-0.001h-7.946l-3.051,64.163c-0.131,2.759-2.474,4.906-5.231,4.757c-2.759-0.131-4.889-2.474-4.757-5.231  l3.028-63.688h-45.366c-14.135,0-25.635,11.5-25.635,25.635v38.956c0,2.762-2.238,5-5,5s-5-2.238-5-5v-38.956  C151.004,293.567,166.989,277.582,186.639,277.582z M249.961,277.582h0.077c38.657-0.021,70.101-31.477,70.101-70.139  c0-38.675-31.465-70.14-70.14-70.14s-70.14,31.465-70.14,70.14C179.86,246.105,211.304,277.561,249.961,277.582z M433.177,367.696  c0,2.762-2.238,5-5,5h-15.031c-33.94,45.064-84.853,74.077-140.652,80.207v24.604C272.493,489.909,262.402,500,250,500  s-22.493-10.091-22.493-22.493v-24.604c-55.798-6.13-106.712-35.143-140.652-80.207H71.823c-2.762,0-5-2.238-5-5s2.238-5,5-5  h356.354C430.938,362.696,433.177,364.935,433.177,367.696z M262.493,448.382v-27.578c0-6.889-5.604-12.493-12.493-12.493  s-12.493,5.604-12.493,12.493v27.578v29.125c0,6.889,5.604,12.493,12.493,12.493s12.493-5.604,12.493-12.493V448.382z   M400.462,372.696H99.539c31.951,39.145,77.855,64.359,127.968,70.154v-22.047c0-12.402,10.091-22.493,22.493-22.493  s22.493,10.091,22.493,22.493v22.047C322.606,437.056,368.511,411.84,400.462,372.696z M47.984,362.696h-6.368c-2.762,0-5,2.238-5,5  s2.238,5,5,5h6.368c2.762,0,5-2.238,5-5S50.746,362.696,47.984,362.696z M458.384,362.696h-6.368c-2.762,0-5,2.238-5,5s2.238,5,5,5  h6.368c2.762,0,5-2.238,5-5S461.146,362.696,458.384,362.696z"/>
</svg>
