<svg height="512pt" viewBox="0 -80 512.00073 512" width="512pt" xmlns="http://www.w3.org/2000/svg"><path d="m16 16v320h480v-320zm128 64c17.671875 0 32 14.328125 32 32s-14.328125 32-32 32-32-14.328125-32-32 14.328125-32 32-32zm64 192h-128v-32c0-35.347656 28.652344-64 64-64s64 28.652344 64 64zm0 0" fill="#bddbff"/><g fill="#3d9ae2"><path d="m496 0h-480c-8.835938 0-16 7.164062-16 16v320c0 8.835938 7.164062 16 16 16h480c8.835938 0 16-7.160156 16-16v-320c0-8.835938-7.164062-16-16-16zm-16 320h-448v-288h448zm0 0"/><path d="m80 288h128c8.835938 0 16-7.164062 16-16v-32c0-44.183594-35.816406-80-80-80s-80 35.816406-80 80v32c0 8.835938 7.164062 16 16 16zm16-48c0-26.507812 21.488281-48 48-48s48 21.492188 48 48v16h-96zm0 0"/><path d="m192 112c0-26.507812-21.488281-48-48-48s-48 21.492188-48 48c0 26.511719 21.488281 48 48 48s48-21.488281 48-48zm-48 16c-8.835938 0-16-7.164062-16-16s7.164062-16 16-16 16 7.164062 16 16-7.164062 16-16 16zm0 0"/><path d="m288 256h160v32h-160zm0 0"/><path d="m288 192h160v32h-160zm0 0"/><path d="m288 128h160v32h-160zm0 0"/></g></svg>