<svg id="Capa_1" enable-background="new 0 0 512 512" height="512" viewBox="0 0 512 512" width="512" xmlns="http://www.w3.org/2000/svg"><g><g><path d="m42.856 7.5h426.289v497h-426.289z" fill="#eff3f5"/></g><g><path d="m37.805 73.161h436.39v365.679h-436.39z" fill="#eff3f5" transform="matrix(0 1 -1 0 512 0)"/></g><g><path d="m149.933 367.118h30.305v183.85h-30.305z" fill="#7fd061" transform="matrix(0 1 -1 0 624.128 293.957)"/></g><g><path d="m438.839 7.5h30.305v497h-30.305z" fill="#c9e2e7"/></g><g><path d="m73.161 37.805h365.679v365.679h-365.679z" fill="#b9e4ef" transform="matrix(0 1 -1 0 476.644 -35.356)"/></g><g><g><path d="m328.732 163.065v40.406h16.163c5.579 0 10.102-4.523 10.102-10.102v-20.203c0-5.579-4.523-10.102-10.102-10.102h-16.163z" fill="#fcd0a3"/></g><g><path d="m183.268 163.065v40.406h-16.163c-5.579 0-10.102-4.523-10.102-10.102v-20.203c0-5.579 4.523-10.102 10.102-10.102h16.163z" fill="#fcd0a3"/></g><g><path d="m291.351 293.503 70.798 12.817c28.84 5.221 49.813 30.331 49.813 59.64v37.524h-311.924v-37.524c0-29.309 20.972-54.419 49.813-59.64l70.798-12.817z" fill="#fb636f"/></g><g><path d="m368.64 307.88c7.953 10.308 12.62 23.193 12.62 37.014v58.589h30.702v-37.523c0-27.059-17.882-50.526-43.322-58.08z" fill="#fa4954"/></g><g><path d="m256 360.047c34.804 0 63.435-26.864 66.291-60.943l-30.939-5.601h-70.703l-30.939 5.601c2.855 34.079 31.486 60.943 66.29 60.943z" fill="#fff"/></g><g><path d="m256 328.854c-19.524 0-35.352-15.827-35.352-35.351v-24.954h70.703v24.954c0 19.524-15.827 35.351-35.351 35.351z" fill="#fcd0a3"/></g><g><path d="m220.649 291.761c10.913 4.469 22.848 6.941 35.351 6.941s24.438-2.471 35.351-6.941v-23.212h-70.703v23.212z" fill="#ffb983"/></g><g><path d="m183.234 141.852c-.009 0-.017-.026-.017-.017v63.289c0 40.38 32.885 73.08 73.334 72.78 40.131-.298 72.23-33.562 72.23-73.694v-62.359h-145.547z" fill="#fcd0a3"/></g><g><path d="m302.789 205.124c0 35.758-25.794 65.471-59.786 71.602 4.22.761 8.558 1.18 12.997 1.18 40.197 0 72.783-32.586 72.783-72.782v-63.273h-25.994z" fill="#ffb983"/></g><g><path d="m183.268 130.74v32.325h80.813c11.158 0 20.203-9.045 20.203-20.203v-52.529c0-11.158-9.045-20.203-20.203-20.203h-20.203c-33.474 0-60.61 27.136-60.61 60.61z" fill="#fce25c"/></g><g><path d="m284.285 94.374v48.488c0 11.158 9.045 20.203 20.203 20.203h24.244v-28.285c0-22.316-18.091-40.407-40.407-40.407h-4.04z" fill="#fbd307"/></g></g><g><path d="m206.429 451.39c4.143 0 7.5-3.358 7.5-7.5s-3.357-7.5-7.5-7.5h-133.269c-4.143 0-7.5 3.358-7.5 7.5v30.305c0 4.142 3.357 7.5 7.5 7.5h183.85c4.143 0 7.5-3.358 7.5-7.5v-30.305c0-4.142-3.357-7.5-7.5-7.5h-15.492c-4.143 0-7.5 3.358-7.5 7.5s3.357 7.5 7.5 7.5h7.992v15.305h-168.85v-15.305z"/><path d="m469.145 201.044c4.143 0 7.5-3.358 7.5-7.5v-186.044c0-4.142-3.357-7.5-7.5-7.5h-426.29c-4.143 0-7.5 3.358-7.5 7.5v497c0 4.142 3.357 7.5 7.5 7.5h426.289c4.143 0 7.5-3.358 7.5-7.5v-275.772c0-4.142-3.357-7.5-7.5-7.5s-7.5 3.358-7.5 7.5v268.272h-411.289v-482h411.289v178.544c.001 4.143 3.358 7.5 7.501 7.5z"/><path d="m449.37 443.89c0-4.142-3.357-7.5-7.5-7.5h-141.423c-4.143 0-7.5 3.358-7.5 7.5s3.357 7.5 7.5 7.5h141.423c4.143 0 7.5-3.358 7.5-7.5z"/><path d="m300.447 466.695c-4.143 0-7.5 3.358-7.5 7.5s3.357 7.5 7.5 7.5h70.711c4.143 0 7.5-3.358 7.5-7.5s-3.357-7.5-7.5-7.5z"/><path d="m438.84 410.984c4.143 0 7.5-3.358 7.5-7.5v-365.679c0-4.142-3.357-7.5-7.5-7.5h-365.68c-4.143 0-7.5 3.358-7.5 7.5v155.874c0 4.142 3.357 7.5 7.5 7.5s7.5-3.358 7.5-7.5v-148.374h350.68v350.679h-11.878v-30.024c0-32.962-23.541-61.148-55.977-67.02l-39.8-7.205c-.006-.001-.011-.002-.017-.003l-24.817-4.493v-14.276c20.92-13.262 35.306-35.914 37.195-61.991h8.848c9.705 0 17.602-7.896 17.602-17.602v-20.204c0-9.706-7.896-17.602-17.602-17.602h-8.663v-20.784c0-25.322-19.751-46.105-44.655-47.784-1.654-13.707-13.35-24.367-27.495-24.367h-20.203c-37.556 0-68.109 30.554-68.109 68.11v24.825h-8.663c-9.705 0-17.602 7.896-17.602 17.602v20.204c0 9.706 7.896 17.602 17.602 17.602h8.848c1.888 26.077 16.275 48.729 37.195 61.991v14.276l-24.817 4.493c-.006.001-.011.002-.017.003l-39.8 7.205c-32.436 5.872-55.977 34.058-55.977 67.02v30.024h-11.878v-167.27c0-4.142-3.357-7.5-7.5-7.5s-7.5 3.358-7.5 7.5v174.77c0 4.142 3.357 7.5 7.5 7.5zm-182.84-74.63c20.608 0 37.86-14.624 41.936-34.038l15.905 2.879c-5.493 27.034-29.69 47.351-57.841 47.351s-52.348-20.316-57.841-47.351l15.905-2.879c4.076 19.415 21.328 34.038 41.936 34.038zm91.496-163.187v20.204c0 1.435-1.167 2.602-2.602 2.602h-8.612v-25.407h8.612c1.435-.001 2.602 1.166 2.602 2.601zm-26.265-38.387v20.785h-16.743c-7.005 0-12.704-5.699-12.704-12.703v-40.807c16.525 1.734 29.447 15.749 29.447 32.725zm-130.462-4.04c0-29.285 23.825-53.11 53.109-53.11h20.203c7.005 0 12.703 5.699 12.703 12.704v52.528c0 7.004-5.698 12.703-12.703 12.703h-73.313v-24.825zm-26.265 62.63v-20.204c0-1.435 1.167-2.602 2.602-2.602h8.612v25.407h-8.612c-1.435.001-2.602-1.166-2.602-2.601zm26.214 11.754v-34.559h73.363c7.962 0 15.145-3.381 20.203-8.777 5.058 5.396 12.242 8.777 20.204 8.777h16.794v34.559c0 35.997-29.285 65.283-65.282 65.283s-65.282-29.286-65.282-65.283zm65.282 80.283c9.788 0 19.17-1.767 27.852-4.989v13.085c0 15.357-12.494 27.852-27.852 27.852s-27.852-12.494-27.852-27.852v-13.085c8.682 3.222 18.064 4.989 27.852 4.989zm-148.462 80.553c0-25.703 18.356-47.682 43.648-52.26l32.208-5.831c3.015 15.276 10.782 29.256 22.387 39.991 13.723 12.695 31.558 19.687 50.219 19.687s36.496-6.991 50.219-19.687c11.605-10.735 19.372-24.716 22.387-39.991l32.208 5.831c25.292 4.579 43.648 26.558 43.648 52.26v30.024h-45.305v-11.693c0-4.142-3.357-7.5-7.5-7.5s-7.5 3.358-7.5 7.5v11.693h-176.314v-11.693c0-4.142-3.357-7.5-7.5-7.5s-7.5 3.358-7.5 7.5v11.693h-45.305z"/></g></g></svg>