<?xml version="1.0" encoding="utf-8"?>
<!-- Generator: Adobe Illustrator 22.0.0, SVG Export Plug-In . SVG Version: 6.00 Build 0)  -->
<svg xmlns="http://www.w3.org/2000/svg" xmlns:xlink="http://www.w3.org/1999/xlink" version="1.1" id="Layer_1" x="0px" y="0px" viewBox="0 0 500 500" style="enable-background:new 0 0 500 500;" xml:space="preserve" width="512" height="512">
<style type="text/css">
	.st0{fill:#83E1E5;}
	.st1{fill:#AAB1BA;}
	.st2{fill:#ECF4F7;}
	.st3{fill:#FDDF7F;}
	.st4{fill:#1C1D21;}
	.st5{fill:#FFFFFF;}
</style>
<g>
	<g>
		<path class="st3" d="M287.139,321.535c24.132-13.515,40.15-39.791,38.907-69.693c-1.667-40.134-34.794-72.301-74.959-72.861    c-42.534-0.594-77.2,33.708-77.2,76.106c0,28.773,15.966,53.815,39.521,66.754c5.232,2.874,9.624,6.866,12.916,11.588h48.048    C277.567,328.583,281.898,324.47,287.139,321.535z"/>
	</g>
</g>
<g>
	<g>
		<polygon class="st0" points="353.991,333.429 146.009,333.429 91.194,387.085 146.009,387.085 146.009,495 353.992,495     353.992,387.085 408.806,387.085   "/>
	</g>
</g>
<g>
	<g>
		<path class="st3" d="M104.067,205.27C119.329,138.799,178.965,89.072,250,89.072s130.671,49.727,145.933,116.198h24.697    C405.006,125.285,334.558,64.919,250,64.919S94.994,125.285,79.37,205.27H104.067z"/>
	</g>
</g>
<g>
	<g>
		<path class="st0" d="M154.301,205.27c13.873-39.495,51.521-67.895,95.699-67.895s81.825,28.4,95.699,67.895h25.318    c-14.703-53.015-63.384-92.046-121.017-92.046s-106.314,39.032-121.017,92.046H154.301z"/>
	</g>
</g>
<g>
	<g>
		<path class="st2" d="M128.983,205.27c14.703-53.015,63.384-92.046,121.017-92.046s106.314,39.032,121.017,92.046h24.916    C380.671,138.799,321.035,89.072,250,89.072S119.329,138.799,104.067,205.27H128.983z"/>
	</g>
</g>
<path class="st4" d="M321.05,252.05c-1.563-37.644-32.325-67.543-70.032-68.069c-0.342-0.005-0.685-0.007-1.024-0.007  c-18.816,0-36.509,7.248-49.923,20.477c-13.66,13.471-21.184,31.454-21.184,50.637c0,22.942,11.177,44.604,29.897,57.945  c2.249,1.603,2.773,4.725,1.171,6.974c-1.604,2.249-4.725,2.772-6.974,1.17c-21.35-15.213-34.095-39.919-34.095-66.088  c0-21.88,8.581-42.393,24.162-57.757c15.3-15.088,35.481-23.356,56.939-23.356c0.39,0,0.778,0.003,1.168,0.008  c43.012,0.6,78.102,34.709,79.886,77.653c1.145,27.548-11.574,53.545-34.022,69.541c-0.88,0.627-1.894,0.929-2.897,0.929  c-1.562,0-3.101-0.73-4.076-2.099c-1.603-2.249-1.078-5.371,1.171-6.973C310.901,299.005,322.054,276.208,321.05,252.05z   M412.304,383.512c1.452,1.421,1.9,3.581,1.133,5.462s-2.598,3.111-4.63,3.111H304.814c-1.308,0-2.563-0.512-3.498-1.427  L250,340.427l-51.316,50.232c-0.935,0.915-2.19,1.427-3.498,1.427H91.193c-2.032,0-3.862-1.23-4.63-3.111s-0.319-4.041,1.133-5.462  l54.815-53.656c0.934-0.915,2.189-1.427,3.497-1.427H250h103.991c1.308,0,2.563,0.512,3.497,1.427L412.304,383.512z   M237.744,338.429h-89.695l-44.6,43.656h89.696L237.744,338.429z M396.551,382.085l-44.6-43.656h-89.695l44.599,43.656H396.551z   M353.992,398.149c-2.762,0-5,2.239-5,5V490H255V381.325c0-2.761-2.238-5-5-5s-5,2.239-5,5V490h-93.991v-86.851c0-2.761-2.238-5-5-5  s-5,2.239-5,5V495c0,2.761,2.238,5,5,5h207.983c2.762,0,5-2.239,5-5v-91.851C358.992,400.388,356.754,398.149,353.992,398.149z   M239.025,20.975H245v5.975c0,2.761,2.238,5,5,5s5-2.239,5-5v-5.975h5.975c2.762,0,5-2.239,5-5s-2.238-5-5-5H255V5  c0-2.761-2.238-5-5-5s-5,2.239-5,5v5.975h-5.975c-2.762,0-5,2.239-5,5S236.264,20.975,239.025,20.975z M394.17,103.959h5.975v5.975  c0,2.761,2.238,5,5,5s5-2.239,5-5v-5.975h5.975c2.762,0,5-2.239,5-5s-2.238-5-5-5h-5.975v-5.975c0-2.761-2.238-5-5-5s-5,2.239-5,5  v5.975h-5.975c-2.762,0-5,2.239-5,5S391.408,103.959,394.17,103.959z M83.881,103.959h5.975v5.975c0,2.761,2.238,5,5,5s5-2.239,5-5  v-5.975h5.975c2.762,0,5-2.239,5-5s-2.238-5-5-5h-5.975v-5.975c0-2.761-2.238-5-5-5s-5,2.239-5,5v5.975h-5.975c-2.762,0-5,2.239-5,5  S81.119,103.959,83.881,103.959z M425.537,204.311C409.195,120.645,335.371,59.919,250,59.919S90.805,120.645,74.463,204.311  c-0.529,2.71,1.238,5.336,3.948,5.866c2.711,0.529,5.337-1.238,5.866-3.949C99.705,127.246,169.401,69.919,250,69.919  s150.295,57.326,165.723,136.309c0.466,2.387,2.558,4.042,4.901,4.042c0.318,0,0.641-0.031,0.965-0.094  C424.299,209.647,426.066,207.021,425.537,204.311z M345.698,210.271c0.55,0,1.109-0.091,1.657-0.284  c2.605-0.915,3.976-3.769,3.061-6.375c-14.968-42.609-55.321-71.237-100.416-71.237s-85.448,28.628-100.416,71.237  c-0.915,2.605,0.455,5.459,3.061,6.375c2.609,0.917,5.46-0.455,6.375-3.06c13.563-38.61,50.124-64.552,90.98-64.552  s77.418,25.941,90.98,64.552C341.703,208.984,343.635,210.271,345.698,210.271z M395.929,210.271c0.371,0,0.747-0.042,1.124-0.128  c2.691-0.618,4.372-3.301,3.754-5.992c-7.703-33.55-26.805-64.02-53.785-85.797C319.633,96.247,285.177,84.072,250,84.072  s-69.633,12.175-97.021,34.282c-26.98,21.777-46.082,52.247-53.785,85.797c-0.618,2.691,1.063,5.375,3.754,5.992  c2.692,0.618,5.374-1.063,5.992-3.754C123.883,141.308,183.208,94.072,250,94.072s126.117,47.236,141.061,112.317  C391.592,208.704,393.651,210.271,395.929,210.271z M371.014,210.271c0.442,0,0.893-0.06,1.339-0.183  c2.661-0.738,4.22-3.494,3.482-6.155c-15.628-56.353-67.373-95.71-125.835-95.71s-110.207,39.357-125.835,95.71  c-0.737,2.661,0.821,5.417,3.482,6.155c2.661,0.738,5.416-0.821,6.154-3.482c14.432-52.039,62.214-88.383,116.198-88.383  s101.767,36.344,116.198,88.383C366.813,208.82,368.823,210.271,371.014,210.271z M250,369.093c2.762,0,5-2.239,5-5v-3.835  c0-2.761-2.238-5-5-5s-5,2.239-5,5v3.835C245,366.854,247.238,369.093,250,369.093z M250,322.104c2.762,0,5-2.239,5-5v-38.612  l22.902-23.13c1.943-1.962,1.928-5.128-0.035-7.071c-1.962-1.942-5.128-1.927-7.07,0.035L250,269.329l-20.797-21.003  c-1.942-1.962-5.108-1.978-7.07-0.035c-1.963,1.943-1.979,5.109-0.035,7.071L245,278.491v38.612  C245,319.865,247.238,322.104,250,322.104z"/>
</svg>
